<svg width="25" height="32" viewBox="0 0 25 32" fill="none" xmlns="http://www.w3.org/2000/svg">
<path
        d="M9.77812 16.3993L8.87323 15.5374L3.47246 20.9382C3.32542 21.0852 3.08681 21.0846 2.94062 20.9367L1.14728 19.1227C1.0017 18.9755 1.00302 18.7381 1.15022 18.5925L7.32468 12.4841L7.32469 12.4841L7.32707 12.4817C8.37324 11.4355 8.90924 10.0576 8.90924 8.54197V1C8.90924 0.792893 9.07714 0.625 9.28424 0.625H11.813C12.0201 0.625 12.188 0.792893 12.188 1V8.57879C12.188 11.0303 11.3313 13.1138 9.61409 14.7966L9.61407 14.7966L9.60961 14.8011L9.42551 14.9852L10.2931 15.8847C11.7605 14.5197 13.7807 13.6957 15.9426 13.6957C20.7454 13.6957 24.375 17.4961 24.375 22.0913C24.375 26.7568 20.6751 30.5237 15.9426 30.5237C11.282 30.5237 7.58376 26.8656 7.58376 22.0913C7.58376 19.862 8.44047 17.8741 9.77812 16.3993ZM21.5381 22.0913C21.5381 19.0492 19.0399 16.6062 15.9794 16.6062C12.8697 16.6062 10.4207 19.1719 10.4207 22.0913C10.4207 25.0813 12.8667 27.6132 15.9426 27.6132C19.1318 27.6132 21.5381 25.0047 21.5381 22.0913Z"
        stroke="#000"
        stroke-width="1.75"
    />
</svg>
