<svg width="31" height="27" viewBox="0 0 31 27" fill="none" xmlns="http://www.w3.org/2000/svg">
<path
        d="M6.198 2.4981L6.19802 2.49811C7.88359 3.7516 9.66947 5.68068 11.2193 7.67733C12.7672 9.67154 14.0355 11.6758 14.703 13.0433C14.8455 13.3353 15.1419 13.5205 15.4668 13.5205C15.7917 13.5205 16.0882 13.3353 16.2307 13.0434C16.8982 11.6759 18.1665 9.67161 19.7144 7.67738C21.2642 5.68069 23.0501 3.75157 24.7357 2.49813L24.7357 2.49811C25.9708 1.5796 27.468 0.866533 28.5533 0.850279C29.0572 0.842733 29.3849 0.983526 29.6053 1.23602C29.8458 1.51144 30.0835 2.06172 30.0835 3.12597C30.0835 3.54827 29.9525 5.47152 29.7763 7.47314C29.6891 8.46342 29.5924 9.45509 29.4982 10.2662C29.4004 11.1087 29.3133 11.6777 29.2563 11.8797L29.2563 11.8797C28.7823 13.5574 27.7006 14.5954 26.3223 15.1691C24.9159 15.7546 23.1853 15.8574 21.5089 15.5747C21.046 15.4967 20.6075 15.8087 20.5294 16.2716C20.4514 16.7345 20.7634 17.173 21.2263 17.2511C24.2758 17.7652 25.8927 18.8334 26.4537 19.9116C26.9591 20.883 26.7677 22.2368 25.1722 23.8586C23.6111 25.4454 22.382 26.0212 21.461 26.1149C20.5731 26.2051 19.8132 25.8622 19.1276 25.2229C18.4271 24.5698 17.8525 23.6466 17.4002 22.7148C16.9521 21.7916 16.6507 20.9169 16.4683 20.3868L16.4565 20.3525C16.4001 20.1883 16.3417 20.0185 16.2953 19.9117C16.2824 19.8821 16.2569 19.8251 16.2201 19.7646C16.2027 19.7361 16.165 19.6771 16.1058 19.6139C16.0683 19.574 15.9052 19.4014 15.6219 19.3532C15.5683 19.344 15.5166 19.34 15.4669 19.3404C15.4171 19.34 15.3653 19.344 15.3116 19.3531C15.0283 19.4014 14.8652 19.574 14.8277 19.6139C14.7685 19.6771 14.7308 19.7361 14.7134 19.7646C14.6766 19.8251 14.6511 19.8821 14.6382 19.9117C14.5918 20.0185 14.5335 20.1883 14.477 20.3525C14.4731 20.364 14.4691 20.3755 14.4652 20.3869C14.2829 20.917 13.9815 21.7917 13.5335 22.7149C13.0813 23.6466 12.5067 24.5699 11.8062 25.223C11.1206 25.8623 10.3606 26.2052 9.47273 26.115C8.55168 26.0213 7.32253 25.4455 5.76133 23.8586C4.16578 22.2368 3.97433 20.883 4.47979 19.9115C5.04076 18.8333 6.65762 17.7651 9.7072 17.2511C9.70721 17.2511 9.70721 17.2511 9.70722 17.2511C10.1701 17.1731 10.4821 16.7345 10.4041 16.2716C10.3261 15.8087 9.88755 15.4967 9.42464 15.5747C9.42463 15.5747 9.42463 15.5747 9.42462 15.5747C7.74817 15.8574 6.01753 15.7546 4.61107 15.1691C3.23277 14.5954 2.15112 13.5574 1.67725 11.8797L1.67723 11.8797C1.62017 11.6777 1.53315 11.1087 1.43531 10.2661C1.34112 9.45502 1.24442 8.46335 1.15723 7.47306C0.980985 5.47144 0.85 3.54822 0.85 3.12597C0.85 2.06173 1.08776 1.51146 1.3282 1.23604C1.54862 0.983534 1.87639 0.842732 2.38034 0.850279C3.46571 0.866533 4.96298 1.57961 6.198 2.4981ZM14.6502 20.4505L15.269 20.6633L14.6502 20.4505ZM15.934 20.892L15.7177 20.8176L15.934 20.892Z"
        stroke="black"
        stroke-width="2"
        stroke-linejoin="round"
    />
</svg>
