<svg width="28" height="30" viewBox="0 0 28 30" fill="none" xmlns="http://www.w3.org/2000/svg">
<path
        d="M12.9912 29.9999C11.1987 29.9999 9.33117 29.7399 7.42117 29.2237C0.206167 27.2674 0.231167 18.4212 0.251167 11.3162L0.253667 10.1712C0.253667 3.54365 4.52492 1.5124 4.70742 1.4299C8.78742 -0.483848 19.2199 -0.487598 23.3037 1.43365C23.4774 1.5124 27.7487 3.54365 27.7487 10.1712C27.7499 10.3487 27.7912 14.7924 27.1799 17.9749C26.7037 20.4562 23.2824 22.8462 19.5537 23.3037L19.2574 23.3424C17.7724 23.5374 14.0374 24.0312 9.54742 23.1499C9.95492 24.8362 11.3287 25.1812 14.0637 25.2774C16.3574 25.3649 18.4524 24.6949 18.4724 24.6887C18.7512 24.5974 19.0537 24.6449 19.2937 24.8124C19.5337 24.9799 19.6824 25.2487 19.6949 25.5387L19.7987 27.8562C19.8149 28.2137 19.6274 28.5487 19.3137 28.7199C19.2349 28.7637 17.3412 29.7862 14.0524 29.9699C13.7024 29.9899 13.3487 29.9999 12.9912 29.9999ZM14.0024 1.8699C10.6437 1.8699 7.28492 2.2899 5.49617 3.1299C5.35742 3.1974 2.12867 4.7999 2.12867 10.1712L2.12617 11.3212C2.10742 18.1237 2.08492 25.8337 7.91117 27.4149C10.0049 27.9812 12.0362 28.2174 13.9449 28.0974C15.8512 27.9912 17.2087 27.5687 17.8974 27.3012L17.8749 26.7749C16.9324 26.9787 15.5112 27.2049 14.0012 27.1524C11.8024 27.0749 8.12742 26.9437 7.60867 22.9474C7.56617 22.6362 7.54617 22.3049 7.54617 21.9524C7.54617 21.6637 7.67867 21.3912 7.90742 21.2137C8.13492 21.0349 8.43117 20.9762 8.71242 21.0424C13.4224 22.2199 17.4862 21.6837 19.0149 21.4837L19.3274 21.4437C22.4224 21.0637 25.0549 19.1137 25.3412 17.6212C25.9162 14.6224 25.8762 10.2249 25.8762 10.1812C25.8762 4.7999 22.6487 3.19615 22.5112 3.13115C20.7199 2.2899 17.3612 1.8699 14.0024 1.8699Z"
        stroke-width="0"
        fill="currentColor"
    />
<path
        d="M22.4063 18.7499C21.8888 18.7499 21.4688 18.3299 21.4688 17.8124C21.4688 16.4812 21.4788 15.3424 21.4875 14.3637C21.5288 9.78241 21.5088 8.99116 20.5463 7.89616C19.9075 7.19366 18.8475 6.80116 17.7838 6.88491C17.2238 6.92866 16.1825 7.15366 15.5125 8.17116L14.8038 9.34616C14.6338 9.62741 14.33 9.79866 14.0013 9.79866C13.6725 9.79866 13.3688 9.62616 13.1988 9.34616L12.47 8.13866C11.8188 7.15241 10.775 6.92616 10.2125 6.88366C9.15251 6.80366 8.08876 7.19616 7.44126 7.90866C6.49126 8.98366 6.47126 9.77991 6.51126 14.3937C6.52001 15.3662 6.53001 16.4949 6.53001 17.8124C6.53001 18.3299 6.11001 18.7499 5.59251 18.7499C5.07501 18.7499 4.65501 18.3299 4.65501 17.8124C4.65501 16.4999 4.64501 15.3787 4.63626 14.4087C4.59626 9.72616 4.58376 8.31241 6.04626 6.65741C7.08501 5.51616 8.73626 4.89116 10.355 5.01616C11.86 5.13241 13.1825 5.87616 14 7.06116C14.835 5.86491 16.1463 5.13241 17.6375 5.01616C19.2575 4.88741 20.9138 5.51241 21.9425 6.64616C23.4175 8.32116 23.4038 9.72616 23.3625 14.3812C23.3538 15.3549 23.3438 16.4887 23.3438 17.8124C23.3438 18.3299 22.9238 18.7499 22.4063 18.7499Z"
        stroke-width="0"
        fill="currentColor"
    />
<path
        d="M13.999 15.1625C13.4815 15.1625 13.0615 14.7425 13.0615 14.225V8.86377C13.0615 8.34627 13.4815 7.92627 13.999 7.92627C14.5165 7.92627 14.9365 8.34627 14.9365 8.86377V14.225C14.9365 14.7425 14.5165 15.1625 13.999 15.1625Z"
        stroke-width="0"
        fill="currentColor"
    />
</svg>
