<svg width="26" height="30" viewBox="0 0 26 30" fill="none" xmlns="http://www.w3.org/2000/svg">
<path
        d="M20.2318 13.9044C20.1016 13.8425 19.9694 13.7829 19.8354 13.7258C19.6022 9.45909 17.2536 7.01641 13.3101 6.99141C13.2922 6.9913 13.2744 6.9913 13.2566 6.9913C10.8978 6.9913 8.9361 7.99077 7.72867 9.80948L9.89748 11.2864C10.7995 9.92786 12.2151 9.63825 13.2576 9.63825C13.2696 9.63825 13.2817 9.63825 13.2936 9.63836C14.5921 9.64658 15.5719 10.0213 16.2061 10.7522C16.6676 11.2843 16.9762 12.0195 17.1291 12.9475C15.9779 12.7532 14.7328 12.6935 13.4018 12.7693C9.65252 12.9837 7.24216 15.1544 7.40404 18.1706C7.48619 19.7006 8.25402 21.0169 9.566 21.8767C10.6753 22.6036 12.1039 22.9591 13.5887 22.8786C15.5496 22.7719 17.0878 22.0292 18.161 20.6713C18.976 19.64 19.4915 18.3036 19.7191 16.6197C20.6536 17.1795 21.3461 17.9162 21.7286 18.8019C22.379 20.3073 22.4169 22.7812 20.3835 24.7981C18.6019 26.565 16.4603 27.3294 13.2237 27.353C9.63355 27.3266 6.91834 26.1836 5.15298 23.9558C3.49987 21.8697 2.64554 18.8566 2.61366 15C2.64554 11.1434 3.49987 8.13025 5.15298 6.04417C6.91834 3.81639 9.63351 2.67344 13.2237 2.64695C16.8399 2.67364 19.6025 3.82209 21.4354 6.06062C22.3341 7.15837 23.0118 8.53888 23.4585 10.1485L26 9.47534C25.4585 7.49409 24.6065 5.78683 23.4471 4.37094C21.0973 1.50104 17.6606 0.0304919 13.2326 0H13.2148C8.79578 0.0303859 5.39758 1.50653 3.11468 4.38739C1.08321 6.951 0.0353206 10.5181 0.00011018 14.9895L0 15L0.00011018 15.0105C0.0353206 19.4819 1.08321 23.0491 3.11468 25.6127C5.39758 28.4934 8.79578 29.9697 13.2148 30H13.2326C17.1613 29.973 19.9306 28.9519 22.212 26.6892C25.1968 23.7291 25.1069 20.0186 24.1232 17.7408C23.4174 16.1073 22.0718 14.7807 20.2318 13.9044ZM13.4484 20.2355C11.8051 20.3273 10.0979 19.5952 10.0137 18.0269C9.95135 16.8641 10.8474 15.5666 13.5492 15.412C13.8586 15.3943 14.1622 15.3856 14.4605 15.3856C15.4419 15.3856 16.36 15.4803 17.1947 15.6614C16.8834 19.5211 15.0572 20.1478 13.4484 20.2355Z"
        stroke-width="0"
        fill="currentColor"
    />
</svg>
